<svg xmlns="http://www.w3.org/2000/svg" xmlns:xlink="http://www.w3.org/1999/xlink" xmlns:ev="http://www.w3.org/2001/xml-events" width="1132.51968503937" height="1597" viewBox="0 0 1132.51968503937 1597" xmlns:ed="http://www.edrawsoft.cn/xml/2017/SVGExtensions/"><defs/><g transform="translate(5,5)" id="page1" ed:name="页面-1"><rect x="0" y="0" width="1123" height="1587" fill="#ffffff" stroke="#808080"/><g transform="translate(288.00,207.00)" id="shape1"><path fill="#ffffff" d="M80,48L80,0L0,0L0,48L80,48Z" stroke="#101843"/><text xmlns="http://www.w3.org/2000/svg" xml:space="preserve"><tspan x="23.625" y="27.666629645013018" textLength="32.73958492279053" style="fill:rgb(25, 25, 25);font-family:微软雅黑;font-size:10pt;font-weight:normal;">book</tspan></text></g><g transform="translate(328.00,207.00)" id="shape2"><path stroke="#191919" d="M0,0L-101,-30" fill="none"/></g><g transform="translate(147.00,153.00)" id="shape3"><path fill="#ffffff" d="M80,48L80,0L0,0L0,48L80,48Z" stroke="#101843"/><text xmlns="http://www.w3.org/2000/svg" xml:space="preserve"><tspan x="22.166667938232422" y="27.666629645013018" textLength="35.666666984558105" style="fill:rgb(25, 25, 25);font-family:微软雅黑;font-size:10pt;font-weight:normal;">name</tspan></text></g><g transform="translate(328.00,207.00)" id="shape4"><path stroke="#191919" d="M0,0L-101,-97" fill="none"/></g><g transform="translate(147.00,86.00)" id="shape5"><path fill="#ffffff" d="M80,48L80,0L0,0L0,48L80,48Z" stroke="#101843"/><text xmlns="http://www.w3.org/2000/svg" xml:space="preserve"><tspan x="14.59375" y="27.666629645013018" textLength="50.802085399627686" style="fill:rgb(25, 25, 25);font-family:微软雅黑;font-size:10pt;font-weight:normal;text-decoration:underline;">book_id</tspan></text></g><g transform="translate(328.00,207.00)" id="shape6"><path stroke="#191919" d="M0,0L0,-115" fill="none"/></g><g transform="translate(288.00,44.00)" id="shape7"><path fill="#ffffff" d="M80,48L80,0L0,0L0,48L80,48Z" stroke="#101843"/><text xmlns="http://www.w3.org/2000/svg" xml:space="preserve"><tspan x="24.572917938232422" y="27.666629645013018" textLength="30.843750476837158" style="fill:rgb(25, 25, 25);font-family:微软雅黑;font-size:10pt;font-weight:normal;">ISBN</tspan></text></g><g transform="translate(328.00,207.00)" id="shape8"><path stroke="#191919" d="M0,0L91,-97" fill="none"/></g><g transform="translate(419.00,86.00)" id="shape9"><path fill="#ffffff" d="M80,48L80,0L0,0L0,48L80,48Z" stroke="#101843"/><text xmlns="http://www.w3.org/2000/svg" xml:space="preserve"><tspan x="18.822916984558105" y="27.666629645013018" textLength="42.354166984558105" style="fill:rgb(25, 25, 25);font-family:微软雅黑;font-size:10pt;font-weight:normal;">author</tspan></text></g><g transform="translate(328.00,207.00)" id="shape10"><path stroke="#191919" d="M0,0L91,-30" fill="none"/></g><g transform="translate(419.00,153.00)" id="shape11"><path fill="#ffffff" d="M80,48L80,0L0,0L0,48L80,48Z" stroke="#101843"/><text xmlns="http://www.w3.org/2000/svg" xml:space="preserve"><tspan x="16.08333396911621" y="27.666629645013018" textLength="47.822917461395264" style="fill:rgb(25, 25, 25);font-family:微软雅黑;font-size:10pt;font-weight:normal;">class-id</tspan></text></g><g transform="translate(227.00,299.06)" id="shape12"><path fill="#ffffff" d="M50,60L100,30L50,0L0,30L50,60Z" stroke="#101843"/><text xmlns="http://www.w3.org/2000/svg" xml:space="preserve"><tspan x="36.0625" y="33.66662964501302" textLength="27.875000476837158" style="fill:rgb(25, 25, 25);font-family:微软雅黑;font-size:10pt;font-weight:normal;">lend</tspan></text></g><g transform="translate(328.00,255.00)" id="shape13"><path stroke="#191919" d="M0,0L-51,44" fill="none"/><rect xmlns="http://www.w3.org/2000/svg" x="-26.625736174882604" y="8.98164222748768" width="10.84375" height="17.33333396911621" fill="rgb(255, 255, 255)" transform=""/><text xmlns="http://www.w3.org/2000/svg" xml:space="preserve"><tspan x="-26.625736174882604" y="21.98164222748768" textLength="10.84375" style="fill:rgb(25, 25, 25);font-family:微软雅黑;font-size:10pt;font-weight:normal;background-color:rgb(255, 255, 255);">N</tspan></text></g><g transform="translate(229.10,327.80)" id="shape14"><path stroke="#191919" d="M0,0L-59.1,-53.9" fill="none"/></g><g transform="translate(90.00,250.00)" id="shape15"><path fill="#ffffff" d="M80,48L80,0L0,0L0,48L80,48Z" stroke="#101843"/><text xmlns="http://www.w3.org/2000/svg" xml:space="preserve"><tspan x="6.854166746139526" y="19.33331298828125" textLength="66.28125190734863" style="fill:rgb(25, 25, 25);font-family:微软雅黑;font-size:10pt;font-weight:normal;">borrow_ti-</tspan><tspan x="29.95833396911621" y="36" textLength="20.072916984558105" style="fill:rgb(25, 25, 25);font-family:微软雅黑;font-size:10pt;font-weight:normal;">me</tspan></text></g><g transform="translate(227.00,329.06)" id="shape16"><path stroke="#191919" d="M0,0L-57,5.9" fill="none"/></g><g transform="translate(90.00,311.00)" id="shape17"><path fill="#ffffff" d="M80,48L80,0L0,0L0,48L80,48Z" stroke="#101843"/><text xmlns="http://www.w3.org/2000/svg" xml:space="preserve"><tspan x="10.385416984558105" y="19.33331298828125" textLength="59.22916841506958" style="fill:rgb(25, 25, 25);font-family:微软雅黑;font-size:10pt;font-weight:normal;">return_ti-</tspan><tspan x="29.95833396911621" y="36" textLength="20.072916984558105" style="fill:rgb(25, 25, 25);font-family:微软雅黑;font-size:10pt;font-weight:normal;">me</tspan></text></g><g transform="translate(893.00,264.00)" id="shape18"><path stroke="#191919" d="M0,0L0,85" fill="none"/></g><g transform="translate(853.00,349.00)" id="shape19"><path fill="#ffffff" d="M80,48L80,0L0,0L0,48L80,48Z" stroke="#101843"/><text xmlns="http://www.w3.org/2000/svg" xml:space="preserve"><tspan x="9.760416984558105" y="27.666629645013018" textLength="60.46875190734863" style="fill:rgb(25, 25, 25);font-family:微软雅黑;font-size:10pt;font-weight:normal;">password</tspan></text></g><g transform="translate(893.00,264.00)" id="shape20"><path stroke="#191919" d="M0,0L-66,85" fill="none"/></g><g transform="translate(747.00,325.00)" id="shape21"><path fill="#ffffff" d="M80,48L80,0L0,0L0,48L80,48Z" stroke="#101843"/><text xmlns="http://www.w3.org/2000/svg" xml:space="preserve"><tspan x="10.875" y="27.666629645013018" textLength="58.23958396911621" style="fill:rgb(25, 25, 25);font-family:微软雅黑;font-size:10pt;font-weight:normal;text-decoration:underline;">admin_id</tspan></text></g><g transform="translate(893.00,264.00)" id="shape22"><path stroke="#191919" d="M0,0L103.9,24" fill="none"/></g><g transform="translate(997.00,264.00)" id="shape23"><path fill="#ffffff" d="M80,48L80,0L0,0L0,48L80,48Z" stroke="#101843"/><text xmlns="http://www.w3.org/2000/svg" xml:space="preserve"><tspan x="8.645833492279053" y="27.666629645013018" textLength="62.70833492279053" style="fill:rgb(25, 25, 25);font-family:微软雅黑;font-size:10pt;font-weight:normal;">username</tspan></text></g><g transform="translate(853.00,216.00)" id="shape24"><path fill="#ffffff" d="M80,48L80,0L0,0L0,48L80,48Z" stroke="#101843"/><text xmlns="http://www.w3.org/2000/svg" xml:space="preserve"><tspan x="6.541666746139526" y="19.33331298828125" textLength="66.90625047683716" style="fill:rgb(25, 25, 25);font-family:微软雅黑;font-size:10pt;font-weight:normal;">admin_acc</tspan><tspan x="25.05208396911621" y="36" textLength="29.885416984558105" style="fill:rgb(25, 25, 25);font-family:微软雅黑;font-size:10pt;font-weight:normal;">ount</tspan></text></g><g transform="translate(566.00,228.00)" id="shape25"><path fill="#ffffff" d="M50,92L100,46L50,0L0,46L50,92Z" stroke="#101843"/><text xmlns="http://www.w3.org/2000/svg" xml:space="preserve"><tspan x="22.083333492279053" y="32.99997901916504" textLength="55.822917461395264" style="fill:rgb(25, 25, 25);font-family:微软雅黑;font-size:10pt;font-weight:normal;">class_ma</tspan><tspan x="20" y="49.66666603088379" textLength="59.98958396911621" style="fill:rgb(25, 25, 25);font-family:微软雅黑;font-size:10pt;font-weight:normal;">nagemen</tspan><tspan x="47.51041793823242" y="66.33329200744629" textLength="4.96875" style="fill:rgb(25, 25, 25);font-family:微软雅黑;font-size:10pt;font-weight:normal;">t</tspan></text></g><g transform="translate(368.00,228.55)" id="shape26"><path stroke="#191919" d="M0,0L198,45.4" fill="none"/><rect xmlns="http://www.w3.org/2000/svg" x="86.50505923888998" y="11.768306487030358" width="10.84375" height="17.33333396911621" fill="rgb(255, 255, 255)" transform=""/><text xmlns="http://www.w3.org/2000/svg" xml:space="preserve"><tspan x="86.50505923888998" y="24.768306487030358" textLength="10.84375" style="fill:rgb(25, 25, 25);font-family:微软雅黑;font-size:10pt;font-weight:normal;background-color:rgb(255, 255, 255);">N</tspan></text></g><g transform="translate(666.00,274.00)" id="shape27"><path stroke="#191919" d="M0,0L187,-34" fill="none"/><rect xmlns="http://www.w3.org/2000/svg" x="78.49350135778528" y="-24.31703723962447" width="7.8229169845581055" height="17.33333396911621" fill="rgb(255, 255, 255)" transform=""/><text xmlns="http://www.w3.org/2000/svg" xml:space="preserve"><tspan x="78.49350135778528" y="-11.317037239624469" textLength="7.8229169845581055" style="fill:rgb(25, 25, 25);font-family:微软雅黑;font-size:10pt;font-weight:normal;background-color:rgb(255, 255, 255);">1</tspan></text></g><g transform="translate(616.00,228.00)" id="shape28"><path stroke="#191919" d="M0,0L-28,-48" fill="none"/><rect xmlns="http://www.w3.org/2000/svg" x="-20.666666984558105" y="-33.33337035498749" width="13.333333969116211" height="17.33333396911621" fill="rgb(255, 255, 255)" transform=""/><text xmlns="http://www.w3.org/2000/svg" xml:space="preserve"><tspan x="-20.666666984558105" y="-20.333370354987487" textLength="13.333333969116211" style="fill:rgb(25, 25, 25);font-family:微软雅黑;font-size:10pt;font-weight:normal;background-color:rgb(255, 255, 255);">否</tspan></text></g><g transform="translate(548.00,132.00)" id="shape29"><path fill="#ffffff" d="M80,48L80,0L0,0L0,48L80,48Z" stroke="#101843"/><text xmlns="http://www.w3.org/2000/svg" xml:space="preserve"><tspan x="15.979166984558105" y="27.666629645013018" textLength="48.031250953674316" style="fill:rgb(25, 25, 25);font-family:微软雅黑;font-size:10pt;font-weight:normal;">class_id</tspan></text></g><g transform="translate(616.00,228.00)" id="shape30"><path stroke="#191919" d="M0,0L75.8,-45" fill="none"/><path stroke-linecap="round" stroke-width="1" fill="#191919" stroke="#191919" d="M74.3,-47.6L80.1,-47.5L77.3,-42.4L74.3,-47.6Z"/></g><g transform="translate(657.00,132.00)" id="shape31"><path fill="#ffffff" d="M80,48L80,0L0,0L0,48L80,48Z" stroke="#101843"/><text xmlns="http://www.w3.org/2000/svg" xml:space="preserve"><tspan x="4.1875" y="27.666629645013018" textLength="71.61458444595337" style="fill:rgb(25, 25, 25);font-family:微软雅黑;font-size:10pt;font-weight:normal;">class_name</tspan></text></g><g transform="translate(93.23,378.00)" id="shape32"><path fill="#ffffff" d="M76.7,45L76.7,0L0,0L0,45L76.7,45Z" stroke="#101843"/><text xmlns="http://www.w3.org/2000/svg" xml:space="preserve"><tspan x="15.416052171118416" y="26.2133668584169" textLength="45.937500953674316" style="fill:rgb(25, 25, 25);font-family:微软雅黑;font-size:10pt;font-weight:normal;">lend_id</tspan></text></g><g transform="translate(170.00,400.55)" id="shape33"><path stroke="#191919" d="M0,0L57,-71.5" fill="none"/></g><g transform="translate(328.00,255.00)" id="shape34"><path stroke="#191919" d="M0,0L76,43.9" fill="none"/><rect xmlns="http://www.w3.org/2000/svg" x="35.93654081701737" y="14.981021176998084" width="10.84375" height="17.33333396911621" fill="rgb(255, 255, 255)" transform=""/><text xmlns="http://www.w3.org/2000/svg" xml:space="preserve"><tspan x="35.93654081701737" y="27.981021176998084" textLength="10.84375" style="fill:rgb(25, 25, 25);font-family:微软雅黑;font-size:10pt;font-weight:normal;background-color:rgb(255, 255, 255);">N</tspan></text></g><g transform="translate(354.00,298.94)" id="shape35"><path fill="#ffffff" d="M50,60.1L100,30L50,0L0,30L50,60.1Z" stroke="#101843"/><text xmlns="http://www.w3.org/2000/svg" xml:space="preserve"><tspan x="25.104166984558105" y="33.72912964501302" textLength="49.79166793823242" style="fill:rgb(25, 25, 25);font-family:微软雅黑;font-size:10pt;font-weight:normal;">Reserve</tspan></text></g><g transform="translate(506.00,320.00)" id="shape36"><path fill="#ffffff" d="M80,47L80,0L0,0L0,47L80,47Z" stroke="#101843"/><text xmlns="http://www.w3.org/2000/svg" xml:space="preserve"><tspan x="5.854166746139526" y="18.83331298828125" textLength="68.28125143051147" style="fill:rgb(25, 25, 25);font-family:微软雅黑;font-size:10pt;font-weight:normal;">reserve_da</tspan><tspan x="33.78125" y="35.5" textLength="12.427083969116211" style="fill:rgb(25, 25, 25);font-family:微软雅黑;font-size:10pt;font-weight:normal;">te</tspan></text></g><g transform="translate(454.00,329.00)" id="shape37"><path stroke="#191919" d="M0,0L52,14.5" fill="none"/></g><g transform="translate(138.40,20.00)" id="shape38"><path fill="#ffffff" d="M80,47L80,0L0,0L0,47L80,47Z" stroke="#101843"/><text xmlns="http://www.w3.org/2000/svg" xml:space="preserve"><tspan x="21.05208396911621" y="27.166629645013018" textLength="37.885416984558105" style="fill:rgb(25, 25, 25);font-family:微软雅黑;font-size:10pt;font-weight:normal;">status</tspan></text></g><g transform="translate(218.40,43.50)" id="shape39"><path stroke="#191919" d="M0,0L106.2,158.5" fill="none"/><path stroke-linecap="round" stroke-width="1" fill="#191919" stroke="#191919" d="M108.7,156.8L109,162.6L103.7,160.1L108.7,156.8Z"/></g><g transform="translate(294.00,457.00)" id="shape40"><path fill="#ffffff" d="M82,48L82,0L0,0L0,48L82,48Z" stroke="#101843"/><text xmlns="http://www.w3.org/2000/svg" xml:space="preserve"><tspan x="7.739583492279053" y="19.33331298828125" textLength="66.52083444595337" style="fill:rgb(25, 25, 25);font-family:微软雅黑;font-size:10pt;font-weight:normal;">userAccou</tspan><tspan x="34.40625" y="36" textLength="13.1875" style="fill:rgb(25, 25, 25);font-family:微软雅黑;font-size:10pt;font-weight:normal;">nt</tspan></text></g><g transform="translate(191.00,527.00)" id="shape41"><path fill="#ffffff" d="M80,48L80,0L0,0L0,48L80,48Z" stroke="#101843"/><text xmlns="http://www.w3.org/2000/svg" xml:space="preserve"><tspan x="9.760416984558105" y="27.666629645013018" textLength="60.46875190734863" style="fill:rgb(25, 25, 25);font-family:微软雅黑;font-size:10pt;font-weight:normal;">password</tspan></text></g><g transform="translate(385.00,570.00)" id="shape42"><path fill="#ffffff" d="M80,48L80,0L0,0L0,48L80,48Z" stroke="#101843"/><text xmlns="http://www.w3.org/2000/svg" xml:space="preserve"><tspan x="8.645833492279053" y="27.666629645013018" textLength="62.70833492279053" style="fill:rgb(25, 25, 25);font-family:微软雅黑;font-size:10pt;font-weight:normal;">username</tspan></text></g><g transform="translate(336.97,505.00)" id="shape43"><path stroke="#191919" d="M0,0L-106,22" fill="none"/></g><g transform="translate(335.00,505.00)" id="shape44"><path stroke="#191919" d="M0,0L90,65" fill="none"/></g><g transform="translate(276.00,612.00)" id="shape45"><path fill="#ffffff" d="M80,48L80,0L0,0L0,48L80,48Z" stroke="#101843"/><text xmlns="http://www.w3.org/2000/svg" xml:space="preserve"><tspan x="10.4375" y="27.666629645013018" textLength="59.11458444595337" style="fill:rgb(25, 25, 25);font-family:微软雅黑;font-size:10pt;font-weight:normal;text-decoration:underline;">reader_id</tspan></text></g><g transform="translate(335.00,505.00)" id="shape46"><path stroke="#191919" d="M0,0L-19,107" fill="none"/></g><g transform="translate(709.00,615.50)" id="shape47"><path fill="#ffffff" d="M78,46L78,0L0,0L0,46L78,46Z" stroke="#101843"/><text xmlns="http://www.w3.org/2000/svg" xml:space="preserve"><tspan x="18.46875" y="26.666629645013018" textLength="41.05208396911621" style="fill:rgb(25, 25, 25);font-family:微软雅黑;font-size:10pt;font-weight:normal;">reader</tspan></text></g><g transform="translate(748.00,661.50)" id="shape48"><path stroke="#191919" d="M0,0L-72,144" fill="none"/></g><g transform="translate(637.00,805.50)" id="shape49"><path fill="#ffffff" d="M78,46L78,0L0,0L0,46L78,46Z" stroke="#101843"/><text xmlns="http://www.w3.org/2000/svg" xml:space="preserve"><tspan x="28.73958396911621" y="26.666629645013018" textLength="20.510417461395264" style="fill:rgb(25, 25, 25);font-family:微软雅黑;font-size:10pt;font-weight:normal;">sex</tspan></text></g><g transform="translate(748.00,661.50)" id="shape50"><path stroke="#191919" d="M0,0L-97,38" fill="none"/></g><g transform="translate(573.00,676.50)" id="shape51"><path fill="#ffffff" d="M78,46L78,0L0,0L0,46L78,46Z" stroke="#101843"/><text xmlns="http://www.w3.org/2000/svg" xml:space="preserve"><tspan x="9.4375" y="26.666629645013018" textLength="59.11458444595337" style="fill:rgb(25, 25, 25);font-family:微软雅黑;font-size:10pt;font-weight:normal;text-decoration:underline;">reader_id</tspan></text></g><g transform="translate(748.00,661.50)" id="shape52"><path stroke="#191919" d="M0,0L-88,102" fill="none"/></g><g transform="translate(582.00,740.50)" id="shape53"><path fill="#ffffff" d="M78,46L78,0L0,0L0,46L78,46Z" stroke="#101843"/><text xmlns="http://www.w3.org/2000/svg" xml:space="preserve"><tspan x="4.802083373069763" y="18.33331298828125" textLength="68.39583444595337" style="fill:rgb(25, 25, 25);font-family:微软雅黑;font-size:10pt;font-weight:normal;">reader_na-</tspan><tspan x="28.95833396911621" y="35" textLength="20.072916984558105" style="fill:rgb(25, 25, 25);font-family:微软雅黑;font-size:10pt;font-weight:normal;">me</tspan></text></g><g transform="translate(748.00,661.50)" id="shape54"><path stroke="#191919" d="M0,0L60,124" fill="none"/></g><g transform="translate(808.00,762.50)" id="shape55"><path fill="#ffffff" d="M78,46L78,0L0,0L0,46L78,46Z" stroke="#101843"/><text xmlns="http://www.w3.org/2000/svg" xml:space="preserve"><tspan x="23.61458396911621" y="26.666629645013018" textLength="30.77083444595337" style="fill:rgb(25, 25, 25);font-family:微软雅黑;font-size:10pt;font-weight:normal;">birth</tspan></text></g><g transform="translate(722.00,812.50)" id="shape56"><path fill="#ffffff" d="M78,46L78,0L0,0L0,46L78,46Z" stroke="#101843"/><text xmlns="http://www.w3.org/2000/svg" xml:space="preserve"><tspan x="18.48958396911621" y="26.666629645013018" textLength="41.01041793823242" style="fill:rgb(25, 25, 25);font-family:微软雅黑;font-size:10pt;font-weight:normal;">phone</tspan></text></g><g transform="translate(748.00,661.50)" id="shape57"><path stroke="#191919" d="M0,0L13,151" fill="none"/></g><g transform="translate(528.00,529.00)" id="shape58"><path fill="#ffffff" d="M48,57.9L96,28.9L48,0L0,28.9L48,57.9Z" stroke="#101843"/><text xmlns="http://www.w3.org/2000/svg" xml:space="preserve"><tspan x="35.5625" y="32.66662964501302" textLength="24.875000476837158" style="fill:rgb(25, 25, 25);font-family:微软雅黑;font-size:10pt;font-weight:normal;">info</tspan></text></g><g transform="translate(787.00,632.57)" id="shape59"><path stroke="#191919" d="M0,0L-163,-74.6" fill="none"/><rect xmlns="http://www.w3.org/2000/svg" x="-94.57913104425857" y="-50.807832506100276" width="7.8229169845581055" height="17.33333396911621" fill="rgb(255, 255, 255)" transform=""/><text xmlns="http://www.w3.org/2000/svg" xml:space="preserve"><tspan x="-94.57913104425857" y="-37.807832506100276" textLength="7.8229169845581055" style="fill:rgb(25, 25, 25);font-family:微软雅黑;font-size:10pt;font-weight:normal;background-color:rgb(255, 255, 255);">1</tspan></text></g><g transform="translate(454.00,329.00)" id="shape60"><path stroke="#191919" d="M0,0L56,87" fill="none"/></g><g transform="translate(510.00,392.50)" id="shape61"><path fill="#ffffff" d="M80,47L80,0L0,0L0,47L80,47Z" stroke="#101843"/><text xmlns="http://www.w3.org/2000/svg" xml:space="preserve"><tspan x="7.770833492279053" y="27.166629645013018" textLength="64.45833492279053" style="fill:rgb(25, 25, 25);font-family:微软雅黑;font-size:10pt;font-weight:normal;">reserve_id</tspan></text></g><g transform="translate(277.00,359.06)" id="shape62"><path stroke="#191919" d="M0,0L58,97.9" fill="none"/><rect xmlns="http://www.w3.org/2000/svg" x="25.083333492279063" y="40.03642597656292" width="7.8229169845581055" height="17.33333396911621" fill="rgb(255, 255, 255)" transform=""/><text xmlns="http://www.w3.org/2000/svg" xml:space="preserve"><tspan x="25.083333492279063" y="53.03642597656292" textLength="7.8229169845581055" style="fill:rgb(25, 25, 25);font-family:微软雅黑;font-size:10pt;font-weight:normal;background-color:rgb(255, 255, 255);">1</tspan></text></g><g transform="translate(335.00,457.00)" id="shape63"><path stroke="#191919" d="M0,0L69,-98" fill="none"/><rect xmlns="http://www.w3.org/2000/svg" x="34.31843279278542" y="-63.202614425514525" width="7.8229169845581055" height="17.33333396911621" fill="rgb(255, 255, 255)" transform=""/><text xmlns="http://www.w3.org/2000/svg" xml:space="preserve"><tspan x="34.31843279278542" y="-50.202614425514525" textLength="7.8229169845581055" style="fill:rgb(25, 25, 25);font-family:微软雅黑;font-size:10pt;font-weight:normal;background-color:rgb(255, 255, 255);">1</tspan></text></g><g transform="translate(528.00,558.00)" id="shape64"><path stroke="#191919" d="M0,0L-152,-77" fill="none"/><rect xmlns="http://www.w3.org/2000/svg" x="-79.9166665077209" y="-47.43232402343708" width="7.8229169845581055" height="17.33333396911621" fill="rgb(255, 255, 255)" transform=""/><text xmlns="http://www.w3.org/2000/svg" xml:space="preserve"><tspan x="-79.9166665077209" y="-34.43232402343708" textLength="7.8229169845581055" style="fill:rgb(25, 25, 25);font-family:微软雅黑;font-size:10pt;font-weight:normal;background-color:rgb(255, 255, 255);">1</tspan></text></g><g transform="translate(335.00,505.00)" id="shape65"><path stroke="#191919" d="M0,0L-108,138" fill="none"/></g><g transform="translate(147.00,619.50)" id="shape66"><path fill="#ffffff" d="M80,47L80,0L0,0L0,47L80,47Z" stroke="#101843"/><text xmlns="http://www.w3.org/2000/svg" xml:space="preserve"><tspan x="5.520833373069763" y="17.96872597656329" textLength="68.95833492279053" style="fill:rgb(25, 25, 25);font-family:微软雅黑;font-size:10pt;font-weight:normal;">number_of</tspan><tspan x="14" y="37.16666298828204" textLength="51.98958492279053" style="fill:rgb(25, 25, 25);font-family:微软雅黑;font-size:10pt;font-weight:normal;">_borrow</tspan></text></g><g transform="translate(335.00,505.00)" id="shape67"><path stroke="#191919" d="M0,0L50.5,156" fill="none"/></g><g transform="translate(385.55,637.50)" id="shape68"><path fill="#ffffff" d="M80,47L80,0L0,0L0,47L80,47Z" stroke="#101843"/><text xmlns="http://www.w3.org/2000/svg" xml:space="preserve"><tspan x="5.520833373069763" y="18.83331298828125" textLength="68.95833492279053" style="fill:rgb(25, 25, 25);font-family:微软雅黑;font-size:10pt;font-weight:normal;">number_of</tspan><tspan x="13.8125" y="35.5" textLength="52.375001430511475" style="fill:rgb(25, 25, 25);font-family:微软雅黑;font-size:10pt;font-weight:normal;">_reserve</tspan></text></g></g></svg>